<?xml version="1.0" encoding="UTF-8"?>
<svg id="Layer_1" xmlns="http://www.w3.org/2000/svg" version="1.1" viewBox="0 0 200 200">
  <!-- Generator: Adobe Illustrator 29.3.1, SVG Export Plug-In . SVG Version: 2.1.0 Build 151)  -->
  <defs>
    <style>
      .st0 {
        fill: #6f00ff;
      }

      .st1 {
        fill: #fff;
      }
    </style>
  </defs>
  <path class="st1" d="M136.16,100c0,19.97-16.19,36.16-36.16,36.16s-36.16-16.19-36.16-36.16"/>
  <g>
    <path d="M100,113.3c-7.33,0-13.3-5.96-13.3-13.3s5.96-13.3,13.3-13.3,13.3,5.96,13.3,13.3-5.96,13.3-13.3,13.3Z"/>
    <path d="M100,91.7c4.57,0,8.3,3.72,8.3,8.3s-3.72,8.3-8.3,8.3-8.3-3.72-8.3-8.3,3.72-8.3,8.3-8.3M100,81.7c-10.1,0-18.3,8.19-18.3,18.3s8.19,18.3,18.3,18.3,18.3-8.19,18.3-18.3-8.19-18.3-18.3-18.3h0Z"/>
  </g>
  <path class="st0" d="M157.09,100l-27.39-24.6L100,1.11l-29.7,74.28-27.39,24.6h14.34c0,15.79,8.61,29.6,21.39,37l-35.73,61.88h114.19l-35.73-61.88c12.77-7.4,21.38-21.21,21.38-37M114.77,125.59c-4.35,2.52-9.39,3.97-14.77,3.97s-10.42-1.45-14.77-3.97c-8.83-5.12-14.79-14.67-14.79-25.59h59.13c0,10.92-5.96,20.47-14.79,25.59Z"/>
</svg>