<?xml version="1.0" encoding="UTF-8"?>
<svg id="Layer_1" xmlns="http://www.w3.org/2000/svg" xmlns:xlink="http://www.w3.org/1999/xlink" version="1.1" viewBox="0 0 183.49 183.49">
  <!-- Generator: Adobe Illustrator 29.3.1, SVG Export Plug-In . SVG Version: 2.1.0 Build 151)  -->
  <defs>
    <style>
      .st0 {
        fill: url(#linear-gradient2);
      }

      .st1 {
        fill: url(#linear-gradient1);
      }

      .st2 {
        fill: url(#linear-gradient);
      }

      .st3 {
        fill: url(#radial-gradient);
        opacity: .4;
      }

      .st4 {
        fill: #dcfffd;
      }

      .st5 {
        fill: url(#radial-gradient1);
        opacity: .5;
      }
    </style>
    <linearGradient id="linear-gradient" x1="0" y1="91.74" x2="183.49" y2="91.74" gradientUnits="userSpaceOnUse">
      <stop offset="0" stop-color="#a8fbff"/>
      <stop offset="1" stop-color="#be7fff"/>
    </linearGradient>
    <radialGradient id="radial-gradient" cx="91.74" cy="91.74" fx="91.74" fy="91.74" r="91.74" gradientUnits="userSpaceOnUse">
      <stop offset=".5" stop-color="#fff" stop-opacity="0"/>
      <stop offset="1" stop-color="#2b002e"/>
    </radialGradient>
    <radialGradient id="radial-gradient1" cx="91.74" cy="91.74" fx="91.74" fy="91.74" r="91.74" gradientUnits="userSpaceOnUse">
      <stop offset=".44" stop-color="#a8fbff"/>
      <stop offset="1" stop-color="#be7fff"/>
    </radialGradient>
    <linearGradient id="linear-gradient1" x1="74.64" y1="123.03" x2="169.97" y2="68" gradientUnits="userSpaceOnUse">
      <stop offset="0" stop-color="#a8fbff"/>
      <stop offset="1" stop-color="#ff7fcc"/>
    </linearGradient>
    <linearGradient id="linear-gradient2" x1="24.63" y1="114.27" x2="114.21" y2="114.27" gradientUnits="userSpaceOnUse">
      <stop offset="0" stop-color="#9faded"/>
      <stop offset=".59" stop-color="#c6a3e6"/>
    </linearGradient>
  </defs>
  <circle class="st2" cx="91.74" cy="91.74" r="91.74"/>
  <circle class="st3" cx="91.74" cy="91.74" r="91.74"/>
  <path class="st4" d="M55.88,37.76c-.22,1.57-.15,3.34.93,4.49.52.55,1.22.9,1.91,1.23,2,.98,4.03,1.96,6.21,2.38s4.58.23,6.42-1.02c3.45-2.34,3.78-7.36,2.71-11.39-.18-.69-.39-1.37-.72-2-5.19-10.06-16.35-1.69-17.46,6.3Z"/>
  <circle class="st5" cx="91.74" cy="91.74" r="91.74"/>
  <path class="st1" d="M123.75,159.61c-2.63,1.36-5.39,2.45-8.35,2.62-7.69.46-15.62-2.03-21.29-7.25s-7.38-13.12-7.74-20.82c-.56-11.97,7.27-25.5,18.27-27.5,33.3-6.04,36.75-49.98,20.67-70.69-4.5-5.79-2.49-6.49,1.01-6.79,1.09-.09,3.71.1,5.41.34,46.3,6.53,52.46,98.69-7.98,130.08Z"/>
  <path class="st0" d="M52.95,156.09c-3.81-.77-8.11-3.75-7.17-7.52.42-1.69,1.83-2.95,3.22-4,3.03-2.29,6.35-4.19,9.86-5.63,1.99-.81,4.39-1.91,4.57-4.05.25-2.91-3.59-4.12-6.5-4.41-8.89-.88-17.69-2.58-26.26-5.09-1.98-.58-4.42-2.02-3.82-3.99.24-.78.92-1.32,1.59-1.78,4.26-2.85,9.5-3.69,14.34-5.37s9.79-4.77,11.08-9.73c-9.61-2.11-19.4-3.42-29.23-3.92,4.86-8.47,15.35-11.97,21.75-19.35,1.6-1.84,2.95-3.94,4.89-5.43,2.33-1.78,5.26-2.51,8.11-3.19,2.13-.51,4.33-1.03,6.49-.67s4.3,1.8,4.77,3.94c.67,3.05-2.07,5.64-4.35,7.77s-4.44,5.57-2.66,8.12c7.5-3.03,15.52-4.77,23.6-5.11,1.11-.05,2.29-.05,3.26.49,1.89,1.07,2.17,3.72,1.68,5.84-2.63,11.55-18.96,15.85-21.48,27.42,5-.01,8.84-4.16,12.83-7.18,4.6-3.49,10.11-5.75,15.84-6.5,5.63-.73,12.56.86,14.41,6.22,2.04,5.95-3.48,11.6-8.43,15.49-13.77,10.83-32.72,32.08-52.39,27.61Z"/>
  <path class="st4" d="M19.19,70.06c-2.76,7.81.27,17.39,7.24,21.87,1.96,1.26,4.15,2.12,6.39,2.76,6.62,1.89,14.62,1.48,19.26-3.61,2.57-2.83,3.74-6.75,3.7-10.57s-1.18-7.56-2.74-11.05c-2.99-6.67-8.39-13.16-16.22-12.71s-15.08,6.11-17.62,13.31Z"/>
</svg>